<?xml version="1.0" encoding="UTF-8"?>
<svg width="88px" height="95px" viewBox="0 0 88 95" version="1.1" xmlns="http://www.w3.org/2000/svg" xmlns:xlink="http://www.w3.org/1999/xlink">
    <!-- Generator: Sketch 53.2 (72643) - https://sketchapp.com -->
    <title>4 Funding Rounds</title>
    <desc>Created with Sketch.</desc>
    <g id="4-Funding-Rounds" stroke="none" stroke-width="1" fill="none" fill-rule="evenodd">
        <g transform="translate(2.000000, 6.000000)" fill="#212A37">
            <g id="Group">
                <path d="M48.0901942,82.9597327 C48.0901942,82.9597327 43.516699,77.4135248 32.8449353,75.6146436 C22.4567799,73.2013432 9.88723301,63.1019142 6.66300971,48.9242541 C2.92768608,34.8799967 9.21411003,20.1966667 17.2500485,13.3334158 C25.2323463,6.1250165 32.7134466,5.00492739 32.5624272,4.90768317 C32.7428803,5.12271617 25.3253236,6.40716172 17.5463107,13.6456931 C9.70127832,20.550033 3.73092233,35.0407921 7.51713592,48.7100429 C10.8076537,62.5135182 23.1136731,72.1817855 33.1645793,74.428264 C35.5726375,74.7969703 37.7193689,75.3711221 39.599822,76.039231 C46.6927832,78.5440231 49.4204854,81.7771881 49.4204854,81.7771881 L48.0901942,82.9597327" id="Fill-121"></path>
                <path d="M36.9092557,82.9597327 C36.9092557,82.9597327 41.4827508,77.4135248 52.1542395,75.6146436 C62.5423948,73.2013432 75.1119417,63.1019142 78.336165,48.9242541 C82.0714887,34.8799967 75.7847896,20.1966667 67.7491262,13.3334158 C59.7671036,6.1250165 52.2854531,5.00492739 52.4378479,4.90768317 C52.2576699,5.12271617 59.6752265,6.40716172 67.4528641,13.6456931 C75.2981715,20.550033 81.2696278,35.0407921 77.4817638,48.7100429 C74.1926214,62.5135182 61.8857767,72.1817855 51.8348706,74.428264 C49.4265372,74.7969703 47.2798058,75.3711221 45.3993528,76.039231 C38.3061165,78.5440231 35.5784142,81.7771881 35.5784142,81.7771881 L36.9092557,82.9597327" id="Fill-122"></path>
                <path d="M29.7673301,66.8402013 C29.7673301,66.8402013 32.6763107,67.8362013 33.6410194,70.1476007 C34.8461489,73.0353432 34.3254207,75.4527525 34.3254207,75.4527525 C34.3254207,75.4527525 31.4106634,73.9436865 30.4344013,72.3779175 C29.0639482,70.180198 29.7673301,66.8402013 29.7673301,66.8402013" id="Fill-123"></path>
                <path d="M24.6626537,79.5257789 C24.6626537,79.5257789 27.6032686,80.4248086 29.75,79.1211881 C32.4301133,77.4924158 33.4363592,75.2325149 33.4363592,75.2325149 C33.4363592,75.2325149 30.1871036,74.7449241 28.4736246,75.4387822 C26.0666667,76.4136898 24.6626537,79.5257789 24.6626537,79.5257789" id="Fill-124"></path>
                <path d="M25.2392233,64.3504752 C25.2392233,64.3504752 27.8775243,65.8053036 28.4131068,68.1991551 C29.0826537,71.1901683 28.1669094,73.4352772 28.1669094,73.4352772 C28.1669094,73.4352772 25.6111327,71.4851881 24.9371845,69.8087525 C23.9898058,67.4546205 25.2392233,64.3504752 25.2392233,64.3504752" id="Fill-125"></path>
                <path d="M18.1437864,75.7280495 C18.1437864,75.7280495 20.8296764,77.0949472 23.1241262,76.1994785 C25.9877184,75.0821287 27.346343,73.0720495 27.346343,73.0720495 C27.346343,73.0720495 24.2943204,72.0508482 22.5205987,72.4299637 C20.0313916,72.9624785 18.1437864,75.7280495 18.1437864,75.7280495" id="Fill-126"></path>
                <path d="M21.1724272,61.1214191 C21.1724272,61.1214191 23.4679773,62.9726205 23.5771845,65.3730462 C23.7119741,68.3736469 22.4441262,70.3853696 22.4441262,70.3853696 C22.4441262,70.3853696 20.3114239,68.0704092 19.9474919,66.3369967 C19.4339159,63.9053432 21.1724272,61.1214191 21.1724272,61.1214191" id="Fill-127"></path>
                <path d="M12.3800162,70.8995314 C12.3800162,70.8995314 14.7371845,72.6734851 17.1048058,72.1990429 C20.0602751,71.6051683 21.7154369,69.8958614 21.7154369,69.8958614 C21.7154369,69.8958614 18.9431715,68.3925479 17.1672492,68.4582904 C14.674466,68.55033 12.3800162,70.8995314 12.3800162,70.8995314" id="Fill-128"></path>
                <path d="M17.7218123,57.2037096 C17.7218123,57.2037096 19.6220712,59.378967 19.3164563,61.714198 C18.9351942,64.6331683 17.3686084,66.3594587 17.3686084,66.3594587 C17.3686084,66.3594587 15.7051942,63.7637228 15.6482524,62.0294884 C15.5706796,59.5959175 17.7218123,57.2037096 17.7218123,57.2037096" id="Fill-129"></path>
                <path d="M7.56610032,65.1506172 C7.56610032,65.1506172 9.53843042,67.2620495 11.9049515,67.2047987 C14.8593204,67.1335776 16.7466505,65.7628449 16.7466505,65.7628449 C16.7466505,65.7628449 14.3292395,63.8426139 12.6044822,63.6053927 C10.1812945,63.2714752 7.56610032,65.1506172 7.56610032,65.1506172" id="Fill-130"></path>
                <path d="M14.9822816,52.7606073 C14.9822816,52.7606073 16.445712,55.1823993 15.7505825,57.3845017 C14.8838026,60.1366502 13.076246,61.5372409 13.076246,61.5372409 C13.076246,61.5372409 11.9154045,58.7513993 12.1580259,57.0675677 C12.4963754,54.7052178 14.9822816,52.7606073 14.9822816,52.7606073" id="Fill-131"></path>
                <path d="M3.82279935,58.7100363 C3.82279935,58.7100363 5.36600324,61.0816997 7.65797735,61.427396 C10.5215696,61.8591056 12.5788997,60.8568053 12.5788997,60.8568053 C12.5788997,60.8568053 10.5730097,58.5938911 8.94920712,58.0726073 C6.66768608,57.3395776 3.82279935,58.7100363 3.82279935,58.7100363" id="Fill-132"></path>
                <path d="M13.0938511,47.932363 C13.0938511,47.932363 14.0910194,50.5176898 13.0437864,52.5253036 C11.7374272,55.0350264 9.75464401,56.0803333 9.75464401,56.0803333 C9.75464401,56.0803333 9.10957929,53.1945083 9.63030744,51.610934 C10.3625728,49.3882871 13.0938511,47.932363 13.0938511,47.932363" id="Fill-133"></path>
                <path d="M1.30745955,51.7829604 C1.30745955,51.7829604 2.39072816,54.3343201 4.54323625,55.0561188 C7.23380259,55.9581617 9.39098706,55.3396337 9.39098706,55.3396337 C9.39098706,55.3396337 7.84283172,52.8156667 6.36454693,52.0357954 C4.28631068,50.9428251 1.30745955,51.7829604 1.30745955,51.7829604" id="Fill-134"></path>
                <path d="M12.0523948,42.8715545 C12.0523948,42.8715545 12.573123,45.5357723 11.2213754,47.2954818 C9.53045307,49.4967624 7.43708738,50.169802 7.43708738,50.169802 C7.43708738,50.169802 7.30834951,47.2749373 8.08325243,45.8351749 C9.16762136,43.8135908 12.0523948,42.8715545 12.0523948,42.8715545" id="Fill-135"></path>
                <path d="M0.0198058252,44.5904488 C0.0198058252,44.5904488 0.629935275,47.2360396 2.58383495,48.2980561 C5.02435275,49.6241386 7.21399676,49.39267 7.21399676,49.39267 C7.21399676,49.39267 6.14943366,46.6947591 4.85682848,45.6924587 C3.03799353,44.2844719 0.0198058252,44.5904488 0.0198058252,44.5904488" id="Fill-136"></path>
                <path d="M11.9071521,37.6762475 C11.9071521,37.6762475 11.9547411,40.3358086 10.3471683,41.805703 C8.34045307,43.6426601 6.20527508,43.9376799 6.20527508,43.9376799 C6.20527508,43.9376799 6.57690939,41.1230759 7.56967638,39.8638317 C8.96323625,38.0961782 11.9071521,37.6762475 11.9071521,37.6762475" id="Fill-137"></path>
                <path d="M8.34887715e-14,37.2954884 C8.34887715e-14,37.2954884 0.135889968,39.9525842 1.84221683,41.3085248 C3.97134304,43.0022178 6.1213754,43.1495908 6.1213754,43.1495908 C6.1213754,43.1495908 5.5566343,40.3653927 4.48024272,39.1787393 C2.96592233,37.5124389 8.34887715e-14,37.2954884 8.34887715e-14,37.2954884" id="Fill-138"></path>
                <path d="M12.6531715,32.3697261 C12.6531715,32.3697261 12.2455016,34.9446436 10.441521,36.0902079 C8.1916343,37.52367 6.08093851,37.4461485 6.08093851,37.4461485 C6.08093851,37.4461485 6.91883495,34.7926139 8.0937055,33.7459373 C9.73841424,32.2763168 12.6531715,32.3697261 12.6531715,32.3697261" id="Fill-139"></path>
                <path d="M1.227411,29.9843663 C1.227411,29.9843663 0.904190939,32.5718845 2.31755663,34.169429 C4.08412621,36.1649901 6.13430421,36.6723036 6.13430421,36.6723036 C6.13430421,36.6723036 6.06443366,33.8889274 5.22763754,32.5609274 C4.05276699,30.6968515 1.227411,29.9843663 1.227411,29.9843663" id="Fill-140"></path>
                <path d="M14.3256634,27.1946898 C14.3256634,27.1946898 13.4924434,29.6101815 11.5561489,30.4105974 C9.13763754,31.4128977 7.11496764,30.9798185 7.11496764,30.9798185 C7.11496764,30.9798185 8.37841424,28.5607657 9.69082524,27.7499406 C11.5291909,26.6109505 14.3256634,27.1946898 14.3256634,27.1946898" id="Fill-141"></path>
                <path d="M3.7039644,22.9562112 C3.7039644,22.9562112 2.95216828,25.3988218 4.04451456,27.1798977 C5.40781553,29.4052838 7.29872168,30.2418581 7.29872168,30.2418581 C7.29872168,30.2418581 7.70804207,27.5453168 7.12789644,26.1211683 C6.31118123,24.1220462 3.7039644,22.9562112 3.7039644,22.9562112" id="Fill-142"></path>
                <path d="M16.9026214,22.3946601 C16.9026214,22.3946601 15.6856634,24.5849835 13.6808738,25.0292937 C11.1759871,25.586736 9.29800971,24.8257657 9.29800971,24.8257657 C9.29800971,24.8257657 10.9297896,22.7055677 12.3335275,22.1451122 C14.303657,21.3570231 16.9026214,22.3946601 16.9026214,22.3946601" id="Fill-143"></path>
                <path d="M7.37794498,16.5035776 C7.37794498,16.5035776 6.23415858,18.7338944 6.98265372,20.6376898 C7.91820388,23.0170231 9.60224919,24.1450561 9.60224919,24.1450561 C9.60224919,24.1450561 10.4577508,21.6109538 10.1394822,20.1385941 C9.69330097,18.0707162 7.37794498,16.5035776 7.37794498,16.5035776" id="Fill-144"></path>
                <path d="M20.3056472,18.120297 C20.3056472,18.120297 18.7563916,20.0276535 16.7444498,20.1172277 C14.2326861,20.2300858 12.5486408,19.1779307 12.5486408,19.1779307 C12.5486408,19.1779307 14.4885113,17.4080858 15.9379126,17.1048482 C17.9751618,16.6788911 20.3056472,18.120297 20.3056472,18.120297" id="Fill-145"></path>
                <path d="M12.117589,10.8204059 C12.117589,10.8204059 10.6335275,12.7787129 11.0307443,14.7435941 C11.5280906,17.1982574 12.9590615,18.5720033 12.9590615,18.5720033 C12.9590615,18.5720033 14.2178317,16.2710132 14.1630906,14.7970099 C14.086343,12.7258449 12.117589,10.8204059 12.117589,10.8204059" id="Fill-146"></path>
                <path d="M24.3699676,14.5378746 C24.3699676,14.5378746 22.5461812,16.1159703 20.5892557,15.8609439 C18.1459871,15.5445578 16.7001618,14.2439505 16.7001618,14.2439505 C16.7001618,14.2439505 18.8746764,12.8647261 20.3265534,12.8181584 C22.3649029,12.7510462 24.3699676,14.5378746 24.3699676,14.5378746" id="Fill-147"></path>
                <path d="M17.7149353,6.10474587 C17.7149353,6.10474587 15.9447896,7.74337954 15.993479,9.70743894 C16.0528964,12.1601848 17.2002589,13.7292409 17.2002589,13.7292409 C17.2002589,13.7292409 18.8083819,11.721901 19.0072654,10.2892607 C19.2872977,8.27726403 17.7149353,6.10474587 17.7149353,6.10474587" id="Fill-148"></path>
                <path d="M28.9701456,11.7317624 C28.9701456,11.7317624 26.9408738,12.9463564 25.0975566,12.3686436 C22.7915534,11.6487624 21.6188835,10.1490099 21.6188835,10.1490099 C21.6188835,10.1490099 23.9537702,9.18670297 25.3621845,9.38776568 C27.3405663,9.66881518 28.9701456,11.7317624 28.9701456,11.7317624" id="Fill-149"></path>
                <path d="M23.9884304,2.46589439 C23.9884304,2.46589439 22.0026214,3.74814851 21.7129612,5.65084818 C21.3515049,8.02771617 22.1905016,9.73674917 22.1905016,9.73674917 C22.1905016,9.73674917 24.0863592,8.07154455 24.5220874,6.72327393 C25.1357929,4.82906601 23.9884304,2.46589439 23.9884304,2.46589439" id="Fill-150"></path>
                <path d="M33.9094984,9.78633003 C33.9094984,9.78633003 31.7432362,10.6149604 30.0624919,9.744967 C27.9600485,8.65966667 27.0861165,7.01308911 27.0861165,7.01308911 C27.0861165,7.01308911 29.5021521,6.4800264 30.8294175,6.91228383 C32.6878641,7.52012871 33.9094984,9.78633003 33.9094984,9.78633003" id="Fill-151"></path>
                <path d="M30.6855502,-1.77635684e-15 C30.6855502,-1.77635684e-15 28.5481715,0.899851485 27.9449191,2.68859736 C27.1895469,4.92083168 27.7055987,6.71176898 27.7055987,6.71176898 C27.7055987,6.71176898 29.8206958,5.42650165 30.4718123,4.19930693 C31.3875566,2.47466007 30.6855502,-1.77635684e-15 30.6855502,-1.77635684e-15" id="Fill-152"></path>
                <path d="M30.7796278,5.51059736 C30.7796278,5.51059736 32.3786731,6.40990099 33.7969903,5.92450165 C35.5693366,5.31912211 36.4454693,4.12890759 36.4454693,4.12890759 C36.4454693,4.12890759 34.6161812,3.43148845 33.5271359,3.61529373 C31.9998867,3.87634653 30.7796278,5.51059736 30.7796278,5.51059736" id="Fill-153"></path>
                <path d="M55.229644,66.8402013 C55.229644,66.8402013 52.3195631,67.8362013 51.3559547,70.1476007 C50.1508252,73.0353432 50.6712783,75.4527525 50.6712783,75.4527525 C50.6712783,75.4527525 53.5863107,73.9436865 54.5625728,72.3779175 C55.9338511,70.180198 55.229644,66.8402013 55.229644,66.8402013" id="Fill-154"></path>
                <path d="M60.3351456,79.5257789 C60.3351456,79.5257789 57.3937055,80.4248086 55.2469741,79.1211881 C52.5682362,77.4924158 51.5606149,75.2325149 51.5606149,75.2325149 C51.5606149,75.2325149 54.8098706,74.7449241 56.5233495,75.4387822 C58.9303074,76.4136898 60.3351456,79.5257789 60.3351456,79.5257789" id="Fill-155"></path>
                <path d="M59.7585761,64.3504752 C59.7585761,64.3504752 57.1194498,65.8053036 56.5846926,68.1991551 C55.9140453,71.1901683 56.831165,73.4352772 56.831165,73.4352772 C56.831165,73.4352772 59.3858414,71.4851881 60.0597896,69.8087525 C61.0071683,67.4546205 59.7585761,64.3504752 59.7585761,64.3504752" id="Fill-156"></path>
                <path d="M66.8531877,75.7280495 C66.8531877,75.7280495 64.1672977,77.0949472 61.8742233,76.1994785 C59.0092557,75.0821287 57.650356,73.0720495 57.650356,73.0720495 C57.650356,73.0720495 60.7026537,72.0508482 62.4761003,72.4299637 C64.9655825,72.9624785 66.8531877,75.7280495 66.8531877,75.7280495" id="Fill-157"></path>
                <path d="M63.8256472,61.1214191 C63.8256472,61.1214191 61.5289968,62.9726205 61.4206149,65.3730462 C61.2847249,68.3736469 62.5528479,70.3853696 62.5528479,70.3853696 C62.5528479,70.3853696 64.6855502,68.0704092 65.0494822,66.3369967 C65.5630583,63.9053432 63.8256472,61.1214191 63.8256472,61.1214191" id="Fill-158"></path>
                <path d="M72.6166828,70.8995314 C72.6166828,70.8995314 70.2584142,72.6734851 67.8921683,72.1990429 C64.936699,71.6051683 63.2826375,69.8958614 63.2826375,69.8958614 C63.2826375,69.8958614 66.0546278,68.3925479 67.8294498,68.4582904 C70.3236084,68.55033 72.6166828,70.8995314 72.6166828,70.8995314" id="Fill-159"></path>
                <path d="M67.2762621,57.2037096 C67.2762621,57.2037096 65.3746278,59.378967 65.6816181,61.714198 C66.0617799,64.6331683 67.629466,66.3594587 67.629466,66.3594587 C67.629466,66.3594587 69.2915049,63.7637228 69.3484466,62.0294884 C69.4262945,59.5959175 67.2762621,57.2037096 67.2762621,57.2037096" id="Fill-160"></path>
                <path d="M77.4319741,65.1506172 C77.4319741,65.1506172 75.4585437,67.2620495 73.093123,67.2047987 C70.138754,67.1335776 68.2503236,65.7628449 68.2503236,65.7628449 C68.2503236,65.7628449 70.668835,63.8426139 72.3922168,63.6053927 C74.8156796,63.2714752 77.4319741,65.1506172 77.4319741,65.1506172" id="Fill-161"></path>
                <path d="M70.0157929,52.7606073 C70.0157929,52.7606073 68.5523625,55.1823993 69.2463916,57.3845017 C70.1131715,60.1366502 71.9204531,61.5372409 71.9204531,61.5372409 C71.9204531,61.5372409 73.0815696,58.7513993 72.8386731,57.0675677 C72.5005987,54.7052178 70.0157929,52.7606073 70.0157929,52.7606073" id="Fill-162"></path>
                <path d="M81.1741748,58.7100363 C81.1741748,58.7100363 79.6309709,61.0816997 77.3389968,61.427396 C74.4751294,61.8591056 72.4177994,60.8568053 72.4177994,60.8568053 C72.4177994,60.8568053 74.4239644,58.5938911 76.0474919,58.0726073 C78.3301133,57.3395776 81.1741748,58.7100363 81.1741748,58.7100363" id="Fill-163"></path>
                <path d="M71.9042233,47.932363 C71.9042233,47.932363 70.9059547,50.5176898 71.9531877,52.5253036 C73.2595469,55.0350264 75.2423301,56.0803333 75.2423301,56.0803333 C75.2423301,56.0803333 75.8871197,53.1945083 75.3666667,51.610934 C74.6344013,49.3882871 71.9042233,47.932363 71.9042233,47.932363" id="Fill-164"></path>
                <path d="M83.6903398,51.7829604 C83.6903398,51.7829604 82.6059709,54.3343201 80.4537379,55.0561188 C77.7631715,55.9581617 75.6070874,55.3396337 75.6070874,55.3396337 C75.6070874,55.3396337 77.1541424,52.8156667 78.6324272,52.0357954 C80.7103883,50.9428251 83.6903398,51.7829604 83.6903398,51.7829604" id="Fill-165"></path>
                <path d="M72.9443042,42.8715545 C72.9443042,42.8715545 72.4235761,45.5357723 73.7764239,47.2954818 C75.4676214,49.4967624 77.5596117,50.169802 77.5596117,50.169802 C77.5596117,50.169802 77.6886246,47.2749373 76.914822,45.8351749 C75.8290777,43.8135908 72.9443042,42.8715545 72.9443042,42.8715545" id="Fill-166"></path>
                <path d="M84.9793689,44.5904488 C84.9793689,44.5904488 84.3678641,47.2360396 82.4131392,48.2980561 C79.9726214,49.6241386 77.7829773,49.39267 77.7829773,49.39267 C77.7829773,49.39267 78.8475405,46.6947591 80.1409709,45.6924587 C81.9589806,44.2844719 84.9793689,44.5904488 84.9793689,44.5904488" id="Fill-167"></path>
                <path d="M73.0895469,37.6762475 C73.0895469,37.6762475 73.0430583,40.3358086 74.6506311,41.805703 C76.656521,43.6426601 78.791699,43.9376799 78.791699,43.9376799 C78.791699,43.9376799 78.4219903,41.1230759 77.4272977,39.8638317 C76.0337379,38.0961782 73.0895469,37.6762475 73.0895469,37.6762475" id="Fill-168"></path>
                <path d="M84.9969741,37.2954884 C84.9969741,37.2954884 84.8608091,39.9525842 83.1558576,41.3085248 C81.025356,43.0022178 78.8753236,43.1495908 78.8753236,43.1495908 C78.8753236,43.1495908 79.4400647,40.3653927 80.5161812,39.1787393 C82.0307767,37.5124389 84.9969741,37.2954884 84.9969741,37.2954884" id="Fill-169"></path>
                <path d="M72.3435275,32.3697261 C72.3435275,32.3697261 72.7514725,34.9446436 74.5554531,36.0902079 C76.8064401,37.52367 78.9160356,37.4461485 78.9160356,37.4461485 C78.9160356,37.4461485 78.0778641,34.7926139 76.9029935,33.7459373 C75.2582848,32.2763168 72.3435275,32.3697261 72.3435275,32.3697261" id="Fill-170"></path>
                <path d="M83.7706634,29.9843663 C83.7706634,29.9843663 84.0925081,32.5718845 82.6794175,34.169429 C80.9128479,36.1649901 78.8626699,36.6723036 78.8626699,36.6723036 C78.8626699,36.6723036 78.9322654,33.8889274 79.7693366,32.5609274 C80.9442071,30.6968515 83.7706634,29.9843663 83.7706634,29.9843663" id="Fill-171"></path>
                <path d="M70.6710356,27.1946898 C70.6710356,27.1946898 71.5056311,29.6101815 73.4408252,30.4105974 C75.8593366,31.4128977 77.8814563,30.9798185 77.8814563,30.9798185 C77.8814563,30.9798185 76.6182848,28.5607657 75.3072492,27.7499406 C73.467233,26.6109505 70.6710356,27.1946898 70.6710356,27.1946898" id="Fill-172"></path>
                <path d="M81.2930097,22.9562112 C81.2930097,22.9562112 82.0448058,25.3988218 80.9521845,27.1798977 C79.5888835,29.4052838 77.6979773,30.2418581 77.6979773,30.2418581 C77.6979773,30.2418581 77.288932,27.5453168 77.8699029,26.1211683 C78.6857929,24.1220462 81.2930097,22.9562112 81.2930097,22.9562112" id="Fill-173"></path>
                <path d="M68.0943528,22.3946601 C68.0943528,22.3946601 69.3113107,24.5849835 71.3161003,25.0292937 C73.8209871,25.586736 75.6989644,24.8257657 75.6989644,24.8257657 C75.6989644,24.8257657 74.0658091,22.7055677 72.6631715,22.1451122 C70.6930421,21.3570231 68.0943528,22.3946601 68.0943528,22.3946601" id="Fill-174"></path>
                <path d="M77.6190291,16.5035776 C77.6190291,16.5035776 78.7636408,18.7338944 78.0154207,20.6376898 C77.0795955,23.0170231 75.3955502,24.1450561 75.3955502,24.1450561 C75.3955502,24.1450561 74.5403236,21.6109538 74.8574919,20.1385941 C75.3036731,18.0707162 77.6190291,16.5035776 77.6190291,16.5035776" id="Fill-175"></path>
                <path d="M64.6913269,18.120297 C64.6913269,18.120297 66.2419579,20.0276535 68.2522492,20.1172277 C70.7651133,20.2300858 72.4480583,19.1779307 72.4480583,19.1779307 C72.4480583,19.1779307 70.5084628,17.4080858 69.0590615,17.1048482 C67.0229126,16.6788911 64.6913269,18.120297 64.6913269,18.120297" id="Fill-176"></path>
                <path d="M72.8793851,10.8204059 C72.8793851,10.8204059 74.3634466,12.7787129 73.9659547,14.7435941 C73.4686084,17.1982574 72.0379126,18.5720033 72.0379126,18.5720033 C72.0379126,18.5720033 70.7791424,16.2710132 70.8338835,14.7970099 C70.9106311,12.7258449 72.8793851,10.8204059 72.8793851,10.8204059" id="Fill-177"></path>
                <path d="M60.6283819,14.5378746 C60.6283819,14.5378746 62.4518932,16.1159703 64.4077184,15.8609439 C66.8520874,15.5445578 68.2968123,14.2439505 68.2968123,14.2439505 C68.2968123,14.2439505 66.123123,12.8647261 64.6704207,12.8181584 C62.6320712,12.7510462 60.6283819,14.5378746 60.6283819,14.5378746" id="Fill-178"></path>
                <path d="M67.2831392,6.10474587 C67.2831392,6.10474587 69.0521845,7.74337954 69.0032201,9.70743894 C68.9440777,12.1601848 67.7967152,13.7292409 67.7967152,13.7292409 C67.7967152,13.7292409 66.1883172,11.721901 65.9908091,10.2892607 C65.7094013,8.27726403 67.2831392,6.10474587 67.2831392,6.10474587" id="Fill-179"></path>
                <path d="M56.0268285,11.7317624 C56.0268285,11.7317624 58.0561003,12.9463564 59.8994175,12.3686436 C62.2054207,11.6487624 63.3780906,10.1490099 63.3780906,10.1490099 C63.3780906,10.1490099 61.0443042,9.18670297 59.6345146,9.38776568 C57.6564078,9.66881518 56.0268285,11.7317624 56.0268285,11.7317624" id="Fill-180"></path>
                <path d="M61.0082686,2.46589439 C61.0082686,2.46589439 62.9943528,3.74814851 63.2851133,5.65084818 C63.6465696,8.02771617 62.8064725,9.73674917 62.8064725,9.73674917 C62.8064725,9.73674917 60.9117152,8.07154455 60.4748867,6.72327393 C59.8611812,4.82906601 61.0082686,2.46589439 61.0082686,2.46589439" id="Fill-181"></path>
                <path d="M51.0874757,9.78633003 C51.0874757,9.78633003 53.2537379,10.6149604 54.9342071,9.744967 C57.0369256,8.65966667 57.9108576,7.01308911 57.9108576,7.01308911 C57.9108576,7.01308911 55.4956472,6.4800264 54.1683819,6.91228383 C52.308835,7.52012871 51.0874757,9.78633003 51.0874757,9.78633003" id="Fill-182"></path>
                <path d="M54.3114239,-1.77635684e-15 C54.3114239,-1.77635684e-15 56.4499029,0.899851485 57.0531553,2.68859736 C57.8074272,4.92083168 57.2913754,6.71176898 57.2913754,6.71176898 C57.2913754,6.71176898 55.1773786,5.42650165 54.5251618,4.19930693 C53.6105178,2.47466007 54.3114239,-1.77635684e-15 54.3114239,-1.77635684e-15" id="Fill-183"></path>
                <path d="M54.2173463,5.51059736 C54.2173463,5.51059736 52.6180259,6.40990099 51.1999838,5.92450165 C49.4276375,5.31912211 48.5512298,4.12890759 48.5512298,4.12890759 C48.5512298,4.12890759 50.3818932,3.43148845 51.4698382,3.61529373 C52.9968123,3.87634653 54.2173463,5.51059736 54.2173463,5.51059736" id="Fill-184"></path>
            </g>
            <g id="32841" transform="translate(10.625000, 15.229358)" fill-rule="nonzero">
                <path d="M32.1497775,8.50605983 L31.8880503,8.42138378 L31.8880503,4.36045483 C32.4817056,4.40975987 32.9128307,4.57084344 33.1852407,4.84324616 C33.5280042,5.18623778 33.6993859,5.75248021 33.6993859,6.54381088 L36.4398151,6.54381088 C36.4398151,5.13065477 36.0067061,4.03859394 35.1426247,3.26931272 C34.3614109,2.57735775 33.2763492,2.19547332 31.8898816,2.12580315 L31.8898816,0.64603929 L30.9166836,0.64603929 L30.9166836,2.15749925 C29.6475735,2.23436612 28.6227931,2.62268164 27.8415792,3.32229268 C26.9489596,4.12679178 26.5030313,5.21471834 26.5030313,6.58545986 C26.5030313,7.70508252 26.8723491,8.60421056 27.6134263,9.28253774 C28.2957485,9.90528191 29.3971395,10.4582028 30.9166836,10.9406879 L30.9166836,15.4325 C30.3587391,15.3482834 29.9271562,15.1392728 29.6194932,14.8025592 C29.2288099,14.3609575 29.0552916,13.6838553 29.0977174,12.7671183 L26.1898743,12.7671183 L26.1785811,13.1445622 C26.1785811,14.5999798 26.5898668,15.7130182 27.4139642,16.4824525 C28.2366882,17.2517337 29.4043122,17.682617 30.9175992,17.7740304 L30.9175992,19.8511203 L31.8907973,19.8511203 L31.8907973,17.7620869 C33.3053453,17.7014509 34.4500776,17.2869516 35.3213318,16.5239484 C36.2766743,15.6931124 36.7555665,14.5708867 36.7555665,13.1554338 C36.7555665,11.9453165 36.4056303,10.9895336 35.706521,10.2899225 C35.006496,9.58403351 33.8202535,8.98885117 32.1497775,8.50605983 Z M30.9143944,8.08620134 C30.4876951,7.91194934 30.1499677,7.72560077 29.8955658,7.5299118 C29.4413965,7.17972347 29.2149224,6.75343389 29.2149224,6.2493587 C29.2149224,5.64789838 29.4134688,5.17919421 29.8125456,4.84248055 C30.1008271,4.59763966 30.4655665,4.44375279 30.9134787,4.38081995 L30.9143944,8.08620134 L30.9143944,8.08620134 Z M33.2385018,14.8967288 C32.8903969,15.2043494 32.4383642,15.3862574 31.8880503,15.4432185 L31.8880503,11.246471 C32.5375611,11.4574721 33.0085176,11.703538 33.3007669,11.991406 C33.6867192,12.3497097 33.8779404,12.8032549 33.8779404,13.3561758 C33.8779404,14.0115348 33.6642855,14.5257159 33.2385018,14.8967288 Z" id="Shape"></path>
                <path d="M13.5132272,26.2275122 L14.6101161,26.2275122 L14.6101161,28.1609267 L13.5132272,28.1609267 L13.5132272,30.4587156 L11.0155814,30.4587156 L11.0155814,28.1609267 L6.84295654,28.1609267 L6.69472831,26.6290675 L11.0155814,19.6539027 L11.0155814,19.631594 L13.5132272,19.631594 L13.5132272,26.2275122 Z M9.0737915,26.2275122 L11.0155814,26.2275122 L11.0155814,22.8960902 L10.8599418,23.1489213 L9.0737915,26.2275122 Z M23.3941214,27.8709146 L20.877206,27.8709146 L20.877206,30.4587156 L19.3163627,30.4587156 L19.3163627,23.9624427 L23.6475917,23.9624427 L23.6475917,25.1715704 L20.877206,25.1715704 L20.877206,26.6662486 L23.3941214,26.6662486 L23.3941214,27.8709146 Z M29.3751308,23.9624427 L29.3751308,28.2144675 C29.3751308,28.6963363 29.2728543,29.1135035 29.0682983,29.4659816 C28.8637424,29.8184597 28.5702534,30.0869042 28.1878226,30.2713231 C27.8053919,30.455742 27.3533003,30.5479501 26.8315342,30.5479501 C26.0429561,30.5479501 25.421886,30.3427128 24.9683053,29.9322319 C24.5147246,29.5217511 24.2834909,28.9595793 24.2745972,28.2456995 L24.2745972,23.9624427 L25.8443342,23.9624427 L25.8443342,28.2769316 C25.8621217,28.9878368 26.1911851,29.3432841 26.8315342,29.3432841 C27.1546734,29.3432841 27.3992476,29.2540505 27.565264,29.0755806 C27.7312805,28.8971106 27.8142875,28.6071013 27.8142875,28.205544 L27.8142875,23.9624427 L29.3751308,23.9624427 Z M35.7563564,30.4587156 L34.2044067,30.4587156 L31.9098336,26.4163919 L31.9098336,30.4587156 L30.3489903,30.4587156 L30.3489903,23.9624427 L31.9098336,23.9624427 L34.1999599,28.0047663 L34.1999599,23.9624427 L35.7563564,23.9624427 L35.7563564,30.4587156 Z M36.7435564,30.4587156 L36.7435564,23.9624427 L38.8291277,23.9624427 C39.4012916,23.9624427 39.9156384,24.092575 40.3721837,24.3528437 C40.8287289,24.6131123 41.1852143,24.9804574 41.4416504,25.45489 C41.6980865,25.9293225 41.8277849,26.4610062 41.8307495,27.049957 L41.8307495,27.3488926 C41.8307495,27.9437924 41.7054979,28.4769633 41.4549909,28.9484214 C41.204484,29.4198794 40.8517043,29.7887118 40.3966413,30.0549294 C39.9415784,30.321147 39.4339017,30.4557411 38.8735962,30.4587156 L36.7435564,30.4587156 Z M38.3043998,25.1715704 L38.3043998,29.2540496 L38.8469151,29.2540496 C39.2945666,29.2540496 39.6384527,29.0941727 39.8785836,28.7744141 C40.1187146,28.4546554 40.2387783,27.9794864 40.2387783,27.3488926 L40.2387783,27.0678039 C40.2387783,26.4401846 40.1187146,25.9672464 39.8785836,25.6489751 C39.6384527,25.3307037 39.2886376,25.1715704 38.8291277,25.1715704 L38.3043998,25.1715704 Z M44.2943028,30.4587156 L42.7379063,30.4587156 L42.7379063,23.9624427 L44.2943028,23.9624427 L44.2943028,30.4587156 Z M50.7866996,30.4587156 L49.2347499,30.4587156 L46.9401768,26.4163919 L46.9401768,30.4587156 L45.3793335,30.4587156 L45.3793335,23.9624427 L46.9401768,23.9624427 L49.2303031,28.0047663 L49.2303031,23.9624427 L50.7866996,23.9624427 L50.7866996,30.4587156 Z M57.0745414,29.6556049 C56.8344104,29.9233098 56.483113,30.1389578 56.0206386,30.3025552 C55.5581642,30.4661526 55.0512287,30.5479501 54.4998169,30.5479501 C53.6519471,30.5479501 52.9745509,30.2876854 52.4676078,29.7671481 C51.9606647,29.2466108 51.6894097,28.5223312 51.6538348,27.5942876 L51.6493879,27.0321101 C51.6493879,26.3925928 51.7620402,25.8341391 51.9873483,25.356732 C52.2126563,24.8793249 52.5350495,24.5119799 52.9545375,24.2546857 C53.3740255,23.9973916 53.8594682,23.8687464 54.41088,23.8687464 C55.2172456,23.8687464 55.8435036,24.0539062 56.2896729,24.4242313 C56.7358421,24.7945564 56.99598,25.3470613 57.0700945,26.0817625 L55.5670602,26.0817625 C55.5136978,25.7188736 55.3980809,25.4600961 55.2202061,25.3054222 C55.0423314,25.1507482 54.7903459,25.0734124 54.4642421,25.0734124 C54.0729176,25.0734124 53.770535,25.2399818 53.5570853,25.5731257 C53.3436356,25.9062696 53.2354301,26.3821823 53.2324655,27.000878 L53.2324655,27.3935099 C53.2324655,28.0419506 53.3428944,28.5290175 53.5637556,28.8547251 C53.7846168,29.1804327 54.1322085,29.3432841 54.6065412,29.3432841 C55.0126886,29.3432841 55.3150712,29.2525633 55.513698,29.0711188 L55.513698,28.0627688 L54.4286673,28.0627688 L54.4286673,26.9874928 L57.0745414,26.9874928 L57.0745414,29.6556049 Z M16.6378784,40.3488747 L15.7929775,40.3488747 L15.7929775,42.6422018 L14.2321341,42.6422018 L14.2321341,36.1459289 L16.7801775,36.1459289 C17.5480036,36.1459289 18.148322,36.31696 18.5811506,36.6590274 C19.0139792,37.0010947 19.2303903,37.4844436 19.2303903,38.1090883 C19.2303903,38.5612121 19.1392308,38.9359934 18.9569092,39.2334432 C18.7745875,39.5308931 18.489251,39.7718239 18.1008911,39.9562428 L19.4527326,42.5752759 L19.4527326,42.6422018 L17.7807181,42.6422018 L16.6378784,40.3488747 Z M15.7929775,39.139747 L16.7801775,39.139747 C17.0766355,39.139747 17.2997167,39.0616676 17.449428,38.9055064 C17.5991393,38.7493452 17.6739938,38.5314664 17.6739938,38.2518635 C17.6739938,37.9722606 17.5983981,37.7528946 17.4472046,37.593759 C17.296011,37.4346233 17.0736709,37.3550566 16.7801775,37.3550566 L15.7929775,37.3550566 L15.7929775,39.139747 Z M25.6560843,39.5279171 C25.6560843,40.1614854 25.5389852,40.72217 25.3047834,41.2099878 C25.0705816,41.6978056 24.7378126,42.0733305 24.3064662,42.3365736 C23.8751199,42.5998168 23.3837482,42.7314364 22.8323364,42.7314364 C22.2809246,42.7314364 21.7917763,42.6042784 21.3648769,42.3499588 C20.9379774,42.0956391 20.6052084,41.7320121 20.3665597,41.2590668 C20.1279111,40.7861215 20.0026594,40.2432836 19.9908011,39.6305368 L19.9908011,39.2646753 C19.9908011,38.6281326 20.1071591,38.0667043 20.3398786,37.5803738 C20.5725981,37.0940432 20.9061083,36.7185184 21.3404192,36.453788 C21.7747301,36.1890576 22.2690664,36.0566944 22.8234427,36.0566944 C23.3718899,36.0566944 23.8610382,36.1875704 24.2909023,36.4493263 C24.7207663,36.7110822 25.0550176,37.0836325 25.2936663,37.5669886 C25.5323149,38.0503447 25.6531198,38.6043368 25.6560843,39.2289815 L25.6560843,39.5279171 Z M24.0685599,39.2557519 C24.0685599,38.6102856 23.9610955,38.1202443 23.7461635,37.7856132 C23.5312315,37.4509821 23.223661,37.283669 22.8234427,37.283669 C22.0407937,37.283669 21.6272411,37.8726109 21.5827724,39.0505125 L21.5783255,39.5279171 C21.5783255,40.1644599 21.6835665,40.6537576 21.8940517,40.995825 C22.1045368,41.3378923 22.4172953,41.5089235 22.8323364,41.5089235 C23.2266255,41.5089235 23.5304904,41.3408668 23.7439401,41.0047484 C23.9573898,40.6686301 24.0655953,40.1852812 24.0685599,39.5546875 L24.0685599,39.2557519 Z M31.539263,36.1459289 L31.539263,40.3979537 C31.539263,40.8798225 31.4369866,41.2969897 31.2324306,41.6494678 C31.0278746,42.0019459 30.7343856,42.2703904 30.3519549,42.4548093 C29.9695241,42.6392283 29.5174325,42.7314364 28.9956665,42.7314364 C28.2070883,42.7314364 27.5860182,42.526199 27.1324376,42.1157182 C26.6788569,41.7052373 26.4476232,41.1430655 26.4387294,40.4291858 L26.4387294,36.1459289 L28.0084664,36.1459289 L28.0084664,40.4604179 C28.0262539,41.1713231 28.3553173,41.5267704 28.9956665,41.5267704 C29.3188057,41.5267704 29.5633798,41.4375367 29.7293963,41.2590668 C29.8954127,41.0805969 29.9784197,40.7905876 29.9784197,40.3890302 L29.9784197,36.1459289 L31.539263,36.1459289 Z M37.9204886,42.6422018 L36.368539,42.6422018 L34.0739659,38.5998782 L34.0739659,42.6422018 L32.5131226,42.6422018 L32.5131226,36.1459289 L34.0739659,36.1459289 L36.3640921,40.1882526 L36.3640921,36.1459289 L37.9204886,36.1459289 L37.9204886,42.6422018 Z M38.9076887,42.6422018 L38.9076887,36.1459289 L40.99326,36.1459289 C41.5654238,36.1459289 42.0797707,36.2760613 42.5363159,36.5363299 C42.9928612,36.7965986 43.3493465,37.1639437 43.6057826,37.6383762 C43.8622188,38.1128088 43.9919172,38.6444925 43.9948818,39.2334432 L43.9948818,39.5323789 C43.9948818,40.1272786 43.8696302,40.6604495 43.6191232,41.1319076 C43.3686162,41.6033657 43.0158365,41.972198 42.5607736,42.2384156 C42.1057106,42.5046333 41.598034,42.6392273 41.0377284,42.6422018 L38.9076887,42.6422018 Z M40.468532,37.3550566 L40.468532,41.4375358 L41.0110474,41.4375358 C41.4586989,41.4375358 41.8025849,41.2776589 42.0427159,40.9579003 C42.2828468,40.6381417 42.4029105,40.1629726 42.4029105,39.5323789 L42.4029105,39.2512901 C42.4029105,38.6236709 42.2828468,38.1507327 42.0427159,37.8324613 C41.8025849,37.5141899 41.4527698,37.3550566 40.99326,37.3550566 L40.468532,37.3550566 Z M48.1348964,40.9155139 C48.1348964,40.6864775 48.0541128,40.5080102 47.8925432,40.3801068 C47.7309737,40.2522033 47.4471194,40.1198401 47.040972,39.9830132 C46.6348246,39.8461862 46.3027967,39.713823 46.0448783,39.5859196 C45.2059023,39.1724642 44.7864205,38.6043435 44.7864205,37.8815403 C44.7864205,37.5216259 44.8909204,37.2041029 45.0999233,36.9289618 C45.3089261,36.6538207 45.6046385,36.43966 45.9870693,36.2864733 C46.3695,36.1332866 46.7993576,36.0566944 47.2766549,36.0566944 C47.7420939,36.0566944 48.1593522,36.1399791 48.5284424,36.306551 C48.8975325,36.473123 49.1843513,36.7103357 49.3889073,37.0181963 C49.5934633,37.3260569 49.6957397,37.6777862 49.6957397,38.0733945 L48.1393433,38.0733945 C48.1393433,37.8086641 48.0585597,37.6034268 47.8969901,37.4576763 C47.7354205,37.3119259 47.516786,37.2390517 47.2410801,37.2390517 C46.9624097,37.2390517 46.7422929,37.3007717 46.5807234,37.4242134 C46.4191538,37.5476551 46.3383702,37.7045575 46.3383702,37.8949255 C46.3383702,38.0614974 46.4273062,38.2124509 46.605181,38.3477906 C46.7830558,38.4831303 47.0958142,38.6229297 47.5434658,38.7671929 C47.9911173,38.9114561 48.3587196,39.0668713 48.6462838,39.2334432 C49.3459246,39.6379751 49.6957397,40.1956852 49.6957397,40.9065905 C49.6957397,41.4747197 49.4822932,41.9208879 49.0553938,42.2451082 C48.6284943,42.5693286 48.0429986,42.7314364 47.2988892,42.7314364 C46.7741586,42.7314364 46.2990918,42.6369974 45.8736747,42.4481168 C45.4482575,42.2592361 45.1280877,42.0004586 44.9131557,41.6717764 C44.6982237,41.3430943 44.5907593,40.964595 44.5907593,40.5362672 L46.1560495,40.5362672 C46.1560495,40.8842836 46.2457266,41.1408302 46.4250837,41.3059149 C46.6044408,41.4709996 46.8957063,41.5535407 47.2988892,41.5535407 C47.5568076,41.5535407 47.7606194,41.4977697 47.9103306,41.386226 C48.0600419,41.2746823 48.1348964,41.1177798 48.1348964,40.9155139 Z" id="4FUNDINGROUNDS"></path>
            </g>
        </g>
    </g>
</svg>