<svg xmlns="http://www.w3.org/2000/svg" width="35" height="35" viewBox="0 0 35 35">
    <path id="prefix__facebook-icon-1_1_" d="M28.437 0H6.562A6.563 6.563 0 0 0 0 6.562v21.875A6.563 6.563 0 0 0 6.562 35h21.875A6.563 6.563 0 0 0 35 28.437V6.562A6.563 6.563 0 0 0 28.437 0zm-.889 18.849h-3.274V30.97H18.8V18.849h-2.12v-4.085h2.12v-2.6c0-3.408 1.418-5.434 5.434-5.434h4.071v4.066h-2.364c-1.566 0-1.667.585-1.667 1.672v2.293h3.721l-.447 4.085z" data-name="facebook-icon-1 (1)" style="fill-rule:evenodd"/>
</svg>
