<svg xmlns="http://www.w3.org/2000/svg" width="35" height="35.001" viewBox="0 0 35 35.001">
    <path d="M11.668 17.5a5.833 5.833 0 1 1 5.832 5.835 5.833 5.833 0 0 1-5.832-5.835m-3.154 0A8.986 8.986 0 1 0 17.5 8.514 8.986 8.986 0 0 0 8.514 17.5m16.229-9.342a2.1 2.1 0 1 0 2.1-2.1 2.1 2.1 0 0 0-2.1 2.1M10.43 31.746a9.667 9.667 0 0 1-3.25-.6 5.443 5.443 0 0 1-2.013-1.309 5.409 5.409 0 0 1-1.309-2.012 9.667 9.667 0 0 1-.6-3.25c-.085-1.845-.1-2.4-.1-7.072s.018-5.226.1-7.072a9.712 9.712 0 0 1 .6-3.25 5.443 5.443 0 0 1 1.309-2.016A5.4 5.4 0 0 1 7.18 3.856a9.667 9.667 0 0 1 3.25-.6c1.845-.085 2.4-.1 7.071-.1s5.226.018 7.072.1a9.712 9.712 0 0 1 3.25.6 5.426 5.426 0 0 1 2.013 1.309 5.432 5.432 0 0 1 1.309 2.013 9.667 9.667 0 0 1 .6 3.25c.085 1.846.1 2.4.1 7.072s-.017 5.226-.1 7.072a9.7 9.7 0 0 1-.6 3.25 5.794 5.794 0 0 1-3.322 3.321 9.667 9.667 0 0 1-3.25.6c-1.845.085-2.4.1-7.072.1s-5.226-.017-7.071-.1M10.286.106a12.837 12.837 0 0 0-4.248.813 8.588 8.588 0 0 0-3.1 2.019 8.564 8.564 0 0 0-2.019 3.1 12.837 12.837 0 0 0-.813 4.248C.02 12.152 0 12.748 0 17.5s.02 5.349.106 7.215a12.837 12.837 0 0 0 .813 4.248 8.557 8.557 0 0 0 2.019 3.1 8.582 8.582 0 0 0 3.1 2.019 12.845 12.845 0 0 0 4.248.813c1.867.085 2.463.106 7.215.106s5.349-.02 7.215-.106a12.837 12.837 0 0 0 4.248-.813 8.949 8.949 0 0 0 5.119-5.119 12.8 12.8 0 0 0 .813-4.248c.085-1.867.1-2.463.1-7.215s-.02-5.349-.1-7.215a12.837 12.837 0 0 0-.813-4.248 8.606 8.606 0 0 0-2.019-3.1 8.583 8.583 0 0 0-3.1-2.019 12.816 12.816 0 0 0-4.247-.812C22.851.021 22.255 0 17.5 0s-5.349.02-7.217.106" data-name="instagram-glyph-1 (2)"/>
</svg>
