<svg xmlns="http://www.w3.org/2000/svg" width="36.628" height="35.002" viewBox="0 0 36.628 35.002">
    <path d="M0 4.066a3.807 3.807 0 0 1 1.237-2.917A4.54 4.54 0 0 1 4.455 0 4.4 4.4 0 0 1 7.6 1.131a3.988 3.988 0 0 1 1.239 3.041A3.723 3.723 0 0 1 7.637 7a4.548 4.548 0 0 1-3.253 1.167h-.035A4.327 4.327 0 0 1 1.2 7 3.918 3.918 0 0 1 0 4.066zM.46 35V11.384h7.849V35zm12.2 0h7.849V21.814a4.6 4.6 0 0 1 1.785-3.942 3.841 3.841 0 0 1 2.528-.831q3.96 0 3.96 5.339V35h7.849V21.461q0-5.233-2.475-7.937a8.442 8.442 0 0 0-6.541-2.7 8.023 8.023 0 0 0-7.106 3.924v.071h-.035l.035-.071v-3.364h-7.852q.071 1.131.071 7.036T12.657 35z" data-name="linkedin-icon-1 (1)"/>
</svg>
