<svg id="Group_7047" data-name="Group 7047" xmlns="http://www.w3.org/2000/svg" width="35.129" height="28.542" viewBox="0 0 35.129 28.542">
  <path id="Path_3071" data-name="Path 3071" d="M35.129,51.379a15.015,15.015,0,0,1-4.15,1.137,7.161,7.161,0,0,0,3.168-3.981,14.392,14.392,0,0,1-4.567,1.743A7.2,7.2,0,0,0,17.123,55.2a7.415,7.415,0,0,0,.167,1.642A20.385,20.385,0,0,1,2.446,49.313a7.2,7.2,0,0,0,2.213,9.625,7.112,7.112,0,0,1-3.254-.887v.079a7.235,7.235,0,0,0,5.77,7.076,7.188,7.188,0,0,1-1.888.237,6.368,6.368,0,0,1-1.363-.123,7.27,7.27,0,0,0,6.729,5.017,14.471,14.471,0,0,1-8.929,3.072A13.49,13.49,0,0,1,0,73.31a20.275,20.275,0,0,0,11.048,3.232c13.252,0,20.5-10.978,20.5-20.493,0-.318-.011-.626-.026-.931A14.367,14.367,0,0,0,35.129,51.379Z" transform="translate(0 -48)"/>
</svg>
