<svg xmlns="http://www.w3.org/2000/svg" width="34.999" height="24.505" viewBox="0 0 34.999 24.505">
  <path id="youtube" d="M34.279-2.248a4.385,4.385,0,0,0-3.085-3.085C28.455-6.082,17.5-6.082,17.5-6.082s-10.955,0-13.694.721A4.474,4.474,0,0,0,.721-2.248,46.2,46.2,0,0,0,0,6.171a46.032,46.032,0,0,0,.721,8.418,4.385,4.385,0,0,0,3.085,3.085c2.767.75,13.694.75,13.694.75s10.955,0,13.694-.721a4.385,4.385,0,0,0,3.085-3.085A46.216,46.216,0,0,0,35,6.2s.029-5.708-.721-8.447ZM14.012,11.417V.924l9.11,5.247Zm0,0" transform="translate(-0.001 6.082)"/>
</svg>
