<svg xmlns="http://www.w3.org/2000/svg" xmlns:v="https://vecta.io/nano" width="96" height="41" fill="none"><path d="M.184 20.412a20.29 20.29 0 0 0 14.625 19.485l6.558-6.77 10.044-10.322H19.496v-6.113H40.41c-.927-4.971-3.677-9.416-7.712-12.465S23.636-.253 18.601.212A20.28 20.28 0 0 0 5.479 6.744C2.072 10.481.184 15.355.184 20.412z" fill="url(#A)"></path><path d="M19.469 16.691v6.113h11.915L21.34 33.126l-6.558 6.77a20.41 20.41 0 0 0 10.147.302l11.315-11.632v10.56h6.084V18.745v-.222-.195-.239s.005-.158 0-.238l-.002-.169a7.21 7.21 0 0 0 .002-.778c-.005-.071.009-.144 0-.213H19.469h0z" fill="url(#B)"></path><path d="M54.796 21.371h1.819v3.49a5.2 5.2 0 0 1-1.622.81c-.601.187-1.226.282-1.855.283a5.03 5.03 0 0 1-2.408-.571c-.695-.364-1.275-.912-1.678-1.585a4.63 4.63 0 0 1 0-4.583c.405-.675.99-1.224 1.69-1.585a5.12 5.12 0 0 1 2.432-.571 5.32 5.32 0 0 1 2.052.381 4.08 4.08 0 0 1 1.548 1.105l-1.277 1.18a2.96 2.96 0 0 0-1.008-.724c-.383-.167-.798-.252-1.216-.247-.509-.01-1.011.109-1.462.345a2.46 2.46 0 0 0-.995.97 3.05 3.05 0 0 0 0 2.863c.231.412.573.75.988.976a2.93 2.93 0 0 0 1.444.351 3.22 3.22 0 0 0 1.548-.369v-2.519h0zm6.285-2.027a3.45 3.45 0 0 1 1.345-.245v1.768l-.43-.024a1.75 1.75 0 0 0-1.29.461 1.86 1.86 0 0 0-.375.643c-.08.238-.112.489-.092.739v3.121h-1.916v-6.611h1.83v.873a2.13 2.13 0 0 1 .928-.725h0zm3.698 6.125a3.24 3.24 0 0 1-1.296-1.21 3.54 3.54 0 0 1 0-3.515 3.24 3.24 0 0 1 1.296-1.21 4.24 4.24 0 0 1 3.741 0c.533.277.98.696 1.29 1.21a3.54 3.54 0 0 1 0 3.515 3.26 3.26 0 0 1-1.29 1.21 4.23 4.23 0 0 1-3.741 0h0zm3.084-1.634a2.12 2.12 0 0 0 0-2.667 1.6 1.6 0 0 0-1.21-.497 1.62 1.62 0 0 0-1.217.497 2.09 2.09 0 0 0 0 2.667 1.62 1.62 0 0 0 1.217.497 1.6 1.6 0 0 0 1.21-.497zm14.123-4.639l-2.397 6.611h-1.842l-1.487-4.104-1.536 4.104h-1.843l-2.383-6.611h1.806l1.561 4.473 1.621-4.473h1.622l1.572 4.473 1.609-4.473h1.697zm5.344 6.292c-.209.148-.445.254-.695.312-.283.071-.574.106-.866.105a2.57 2.57 0 0 1-1.824-.602c-.226-.233-.401-.511-.512-.816a2.3 2.3 0 0 1-.133-.954v-2.714h-1.02v-1.475h1.02v-1.609h1.916v1.609h1.647v1.475h-1.647v2.69c-.014.235.063.466.215.646a.8.8 0 0 0 .608.226c.279.008.552-.078.775-.245l.516 1.352h0zm7.083-5.653a2.93 2.93 0 0 1 .755 2.188v3.784h-1.917v-3.489c.033-.42-.089-.838-.343-1.174-.128-.133-.283-.237-.455-.304a1.26 1.26 0 0 0-.54-.083 1.54 1.54 0 0 0-.626.101 1.5 1.5 0 0 0-.53.347 1.86 1.86 0 0 0-.429 1.333v3.269h-1.917v-9.116h1.917v3.194a2.55 2.55 0 0 1 .92-.584 3.34 3.34 0 0 1 1.18-.202 2.72 2.72 0 0 1 1.985.736h0 0zm-44.525 19.01a3.83 3.83 0 0 1-1.419-.78l.454-.958a3.76 3.76 0 0 0 1.26.718 4.61 4.61 0 0 0 1.578.277 2.83 2.83 0 0 0 1.598-.363 1.12 1.12 0 0 0 .528-.964.95.95 0 0 0-.068-.39c-.05-.124-.125-.236-.221-.329a1.95 1.95 0 0 0-.712-.424 13.31 13.31 0 0 0-1.198-.331 12.27 12.27 0 0 1-1.566-.467c-.394-.153-.744-.4-1.02-.719a1.92 1.92 0 0 1-.424-1.308 2.21 2.21 0 0 1 .362-1.241 2.5 2.5 0 0 1 1.1-.885 4.46 4.46 0 0 1 1.83-.331 5.79 5.79 0 0 1 1.499.196c.452.113.88.305 1.266.566l-.405.982a4.48 4.48 0 0 0-1.156-.523 4.33 4.33 0 0 0-1.204-.177 2.65 2.65 0 0 0-1.566.381 1.17 1.17 0 0 0-.386.425c-.092.172-.138.363-.136.557-.005.134.019.267.07.391a.95.95 0 0 0 .225.328 2.04 2.04 0 0 0 .731.43c.389.13.784.239 1.185.326a12.17 12.17 0 0 1 1.561.466 2.65 2.65 0 0 1 1.013.713c.297.362.449.822.424 1.29a2.19 2.19 0 0 1-.369 1.235c-.277.399-.666.706-1.117.885-.586.233-1.214.344-1.844.326a5.88 5.88 0 0 1-1.873-.302h0zm9.116-.153a3.16 3.16 0 0 1-1.222-1.186c-.291-.525-.443-1.114-.443-1.714a3.53 3.53 0 0 1 .443-1.714c.29-.499.713-.907 1.222-1.179.547-.289 1.158-.435 1.776-.424a3.41 3.41 0 0 1 1.578.356 2.54 2.54 0 0 1 1.075 1.032l-.896.578a2.01 2.01 0 0 0-.762-.701 2.19 2.19 0 0 0-1.008-.233c-.401-.006-.796.091-1.148.282-.338.186-.615.466-.799.805a2.65 2.65 0 0 0 0 2.408 2.01 2.01 0 0 0 .799.805 2.33 2.33 0 0 0 1.148.283 2.19 2.19 0 0 0 1.008-.233c.311-.164.573-.406.762-.702l.896.566a2.57 2.57 0 0 1-1.075 1.038 3.35 3.35 0 0 1-1.578.362c-.619.012-1.231-.136-1.776-.429h0zm12.544-5.498a2.82 2.82 0 0 1 .583.978 2.81 2.81 0 0 1 .149 1.129v3.747H71.1v-3.612a2 2 0 0 0-.455-1.425 1.71 1.71 0 0 0-1.302-.48c-.277-.015-.554.027-.814.123a2.03 2.03 0 0 0-.698.435 2.19 2.19 0 0 0-.552 1.604v3.354h-1.18v-9.116h1.18v3.526a2.44 2.44 0 0 1 .965-.725 3.31 3.31 0 0 1 1.333-.258 2.67 2.67 0 0 1 1.059.159c.339.124.649.314.912.56v.001zm5.228 5.498a3.12 3.12 0 0 1-1.21-1.186 3.58 3.58 0 0 1 0-3.428 3.07 3.07 0 0 1 1.21-1.179 3.79 3.79 0 0 1 3.483 0c.503.274.92.682 1.204 1.179a3.59 3.59 0 0 1 0 3.428 3.14 3.14 0 0 1-1.204 1.186 3.75 3.75 0 0 1-3.483 0zm2.869-.891c.331-.192.601-.473.779-.811a2.68 2.68 0 0 0 0-2.396 2 2 0 0 0-.779-.805c-.346-.185-.732-.282-1.124-.282a2.38 2.38 0 0 0-1.124.282c-.332.189-.605.468-.786.805-.19.371-.289.781-.289 1.198s.099.827.289 1.198a2.08 2.08 0 0 0 .786.811 2.33 2.33 0 0 0 2.249 0h-.001zm6.161.891c-.505-.276-.924-.686-1.21-1.186a3.59 3.59 0 0 1 0-3.428 3.06 3.06 0 0 1 1.21-1.179 3.56 3.56 0 0 1 1.744-.424 3.53 3.53 0 0 1 1.739.424 3.08 3.08 0 0 1 1.204 1.179 3.59 3.59 0 0 1 0 3.428c-.285.498-.701.909-1.204 1.186a3.75 3.75 0 0 1-3.483 0zm2.868-.891a2.04 2.04 0 0 0 .781-.811 2.68 2.68 0 0 0 0-2.396c-.178-.337-.449-.616-.781-.805a2.38 2.38 0 0 0-2.248 0c-.332.189-.605.468-.786.805-.19.371-.289.781-.289 1.198s.099.827.289 1.198a2.07 2.07 0 0 0 .786.811 2.33 2.33 0 0 0 2.248 0h0zm5.117-7.869h1.18v9.116h-1.18v-9.116z" fill="#fff"></path><defs><linearGradient id="A" x1="5.965" y1="6.993" x2="20.297" y2="39.897" gradientUnits="userSpaceOnUse"><stop stop-color="#e9ffc2"></stop><stop offset="1" stop-color="#dcfff2"></stop></linearGradient><linearGradient id="B" x1="42.338" y1="16.691" x2="19.252" y2="40.697" gradientUnits="userSpaceOnUse"><stop stop-color="#38ee7f"></stop><stop offset="1" stop-color="#21b6de"></stop></linearGradient></defs></svg>